Coordinates
version=1
nRows=17
nColumns=38
inDegrees=no

Units are S.I. units (second, meters, Newtons, ...)
If the header above contains a line with 'inDegrees', this indicates whether rotational values are in degrees (yes) or radians (no).

endheader
time	pelvis_tilt	pelvis_list	pelvis_rotation	pelvis_tx	pelvis_ty	pelvis_tz	hip_flexion_r	hip_adduction_r	hip_rotation_r	knee_angle_r	ankle_angle_r	subtalar_angle_r	mtp_angle_r	hip_flexion_l	hip_adduction_l	hip_rotation_l	knee_angle_l	ankle_angle_l	subtalar_angle_l	mtp_angle_l	lumbar_extension	lumbar_bending	lumbar_rotation	arm_flex_r	arm_add_r	arm_rot_r	elbow_flex_r	pro_sup_r	wrist_flex_r	wrist_dev_r	arm_flex_l	arm_add_l	arm_rot_l	elbow_flex_l	pro_sup_l	wrist_flex_l	wrist_dev_l
190	1.59832	1.4068	-1.11604	-0.196128	1.26915	0.921526	-0.213035	0.103748	-0.269341	0.165614	-0.254463	0	0	0.21398	-0.342211	-0.31502	1.18868	-0.222415	0	0	-0.142223	0.132722	-0.0248785	0.0521929	-0.628483	0.765539	0.947448	0.197999	0	0	0.31144	-0.426398	1.51574	0.702923	0.39245	0	0
190.01	1.61328	1.4078	-1.13661	-0.18925	1.27228	0.921572	-0.221641	0.0998177	-0.272979	0.167538	-0.250672	0	0	0.225583	-0.33467	-0.319117	1.14889	-0.219983	0	0	-0.144418	0.127655	-0.0211582	0.0548826	-0.627926	0.75929	0.946161	0.198688	0	0	0.312086	-0.428392	1.51514	0.70198	0.392532	0	0
190.02	1.61641	1.41066	-1.14271	-0.18284	1.27505	0.921121	-0.226511	0.0979777	-0.275925	0.169848	-0.245226	0	0	0.242461	-0.327004	-0.317391	1.10672	-0.221563	0	0	-0.144842	0.123202	-0.0199131	0.0586291	-0.626067	0.753732	0.944366	0.199384	0	0	0.314243	-0.43185	1.51539	0.70214	0.395601	0	0
190.03	1.61576	1.41434	-1.14059	-0.178292	1.2724	0.919477	-0.224411	0.106449	-0.257236	0.171519	-0.238659	0	0	0.275581	-0.321547	-0.290707	1.07045	-0.227457	0	0	-0.154129	0.110013	-0.0198296	0.0705275	-0.610514	0.745248	0.939975	0.186848	0	0	0.335492	-0.454681	1.52863	0.720499	0.385621	0	0
190.04	1.60881	1.41912	-1.13404	-0.172223	1.27526	0.918711	-0.227145	0.106116	-0.260772	0.172607	-0.229192	0	0	0.292395	-0.311486	-0.284945	1.01794	-0.236441	0	0	-0.150581	0.107688	-0.0151423	0.0663187	-0.608894	0.730228	0.938746	0.201529	0	0	0.322657	-0.444031	1.54937	0.692166	0.790822	0	0
190.05	1.61053	1.42068	-1.13721	-0.165712	1.27885	0.918209	-0.236776	0.105072	-0.266554	0.168933	-0.22675	0	0	0.298663	-0.302272	-0.287279	0.958301	-0.240169	0	0	-0.150675	0.105428	-0.0150704	0.069473	-0.608801	0.728728	0.938301	0.195708	0	0	0.32088	-0.441098	1.55104	0.683273	0.85205	0	0
190.06	1.62137	1.41905	-1.14878	-0.159202	1.28256	0.917731	-0.251475	0.104438	-0.272617	0.162595	-0.224972	0	0	0.29808	-0.292953	-0.291042	0.893869	-0.246449	0	0	-0.156722	0.101463	-0.0213431	0.0816243	-0.607347	0.739181	0.934775	0.202112	0	0	0.341004	-0.462335	1.52882	0.718995	0.391925	0	0
190.07	1.60974	1.4228	-1.13794	-0.152572	1.28659	0.916878	-0.258609	0.1043	-0.276191	0.158385	-0.222533	0	0	0.302567	-0.28306	-0.292155	0.826447	-0.255228	0	0	-0.151239	0.102038	-0.0157058	0.07487	-0.608393	0.726229	0.936423	0.204885	0	0	0.322823	-0.443299	1.55233	0.680287	0.849111	0	0
190.08	1.60404	1.4243	-1.13168	-0.146093	1.29076	0.915945	-0.268614	0.104632	-0.280681	0.15368	-0.219629	0	0	0.303486	-0.272782	-0.291339	0.75803	-0.264147	0	0	-0.15087	0.101073	-0.0176567	0.0780134	-0.608567	0.727504	0.935293	0.205773	0	0	0.325328	-0.449193	1.5473	0.687096	0.786729	0	0
190.09	1.58495	1.42733	-1.11153	-0.139555	1.29512	0.914655	-0.275643	0.105902	-0.285033	0.1506	-0.216488	0	0	0.306917	-0.264156	-0.289783	0.692654	-0.266732	0	0	-0.147574	0.101709	-0.0197526	0.0792596	-0.609295	0.726471	0.93635	0.198799	0	0	0.324311	-0.451492	1.53874	0.687942	0.769552	0	0
190.1	1.57937	1.42763	-1.1027	-0.133207	1.29958	0.913446	-0.286578	0.107292	-0.291625	0.146103	-0.212139	0	0	0.304319	-0.252713	-0.281138	0.622032	-0.273992	0	0	-0.149655	0.100457	-0.0285739	0.0885981	-0.608083	0.734579	0.934033	0.201884	0	0	0.342062	-0.46486	1.52664	0.712982	0.392117	0	0
190.11	1.55962	1.44627	-1.0829	-0.1275	1.30485	0.910607	-0.306073	0.074888	-0.175259	0.0984299	-0.21207	0	0	0.317783	-0.228857	-0.263674	0.548238	-0.275623	0	0	-0.129619	0.0962982	-0.0266131	0.0822461	-0.610654	0.726148	0.934046	0.212679	0	0	0.317674	-0.448565	1.5256	0.678947	0.81179	0	0
190.12	1.51065	1.43693	-1.02779	-0.120412	1.30902	0.910028	-0.288501	0.110264	-0.306228	0.155286	-0.19433	0	0	0.306691	-0.231043	-0.250915	0.478736	-0.278411	0	0	-0.135109	0.105503	-0.0306772	0.0819452	-0.609431	0.723033	0.933122	0.212891	0	0	0.320821	-0.446403	1.5404	0.673817	0.852495	0	0
190.13	1.45878	1.44167	-0.973518	-0.113994	1.31375	0.907971	-0.286109	0.112363	-0.312159	0.163903	-0.187486	0	0	0.308013	-0.223287	-0.235149	0.410724	-0.279635	0	0	-0.127056	0.108696	-0.0330954	0.0816193	-0.6098	0.721514	0.932014	0.212791	0	0	0.320741	-0.444634	1.54477	0.670551	0.863701	0	0
190.14	1.41049	1.4444	-0.921525	-0.107559	1.31886	0.906049	-0.287231	0.115267	-0.315829	0.169134	-0.183615	0	0	0.306499	-0.216074	-0.218816	0.345213	-0.278944	0	0	-0.120992	0.112362	-0.037771	0.0825267	-0.61056	0.723217	0.930328	0.209735	0	0	0.318973	-0.446542	1.53628	0.672384	0.851201	0	0
190.15	1.37365	1.44526	-0.87981	-0.101138	1.32429	0.90435	-0.291307	0.117951	-0.319131	0.174086	-0.177565	0	0	0.301819	-0.208675	-0.201956	0.282511	-0.279908	0	0	-0.117285	0.115895	-0.0438204	0.0839996	-0.611321	0.725957	0.928023	0.209468	0	0	0.31701	-0.449567	1.52431	0.675988	0.829415	0	0
190.16	1.34434	1.44617	-0.846001	-0.094724	1.32963	0.902759	-0.293205	0.118147	-0.328469	0.186342	-0.16756	0	0	0.291411	-0.199121	-0.17648	0.211245	-0.287302	0	0	-0.113964	0.11825	-0.0488967	0.0854388	-0.611248	0.728759	0.924593	0.209073	0	0	0.317022	-0.448753	1.52839	0.674672	0.835393	0	0
